<svg xmlns="http://www.w3.org/2000/svg" xmlns:xlink="http://www.w3.org/1999/xlink" width="160" height="160" viewBox="0 0 160 160">
  <defs>
    <clipPath id="clip-path">
      <rect id="사각형_125" data-name="사각형 125" width="99.872" height="99.872" fill="none"/>
    </clipPath>
  </defs>
  <g id="changbibusan" transform="translate(15296 7699)">
    <rect id="사각형_121" data-name="사각형 121" width="160" height="160" transform="translate(-15296 -7699)" fill="none"/>
    <g id="_레이어_1-2" transform="translate(-15265.373 -7668.373)">
      <g id="그룹_919" data-name="그룹 919" transform="translate(-0.627 -0.627)">
        <rect id="사각형_124" data-name="사각형 124" width="96.673" height="96.673" transform="translate(2.054 2.054)" fill="#fff"/>
        <path id="패스_123" data-name="패스 123" d="M2.706,2.706H96.513V96.513H2.706ZM0,99.219H99.219V0H0Z" transform="translate(0.781 0.781)" fill="#231815"/>
        <g id="그룹_917" data-name="그룹 917" transform="translate(0 0)" clip-path="url(#clip-path)">
          <path id="패스_124" data-name="패스 124" d="M16.924,41.411c1.713,0,2.7.775,2.7,2.092a2.063,2.063,0,0,1-2.29,2.164H14.255V41.411h2.687Zm.162,6.113c1.8,0,2.885.866,2.885,2.344s-1.082,2.344-2.957,2.344H14.255V47.524H17.1Zm-6.708-6.113h1.587v10.8h-1.6v1.911h7.447c2.8,0,4.652-1.641,4.652-4.111,0-1.461-.631-2.939-3.066-3.606.992-.361,2.579-.92,2.579-3.174S20.188,39.5,17.158,39.5h-6.78v1.911Zm14.065,3.336h1.244v6.221a3.128,3.128,0,0,0,3.192,3.408,3.747,3.747,0,0,0,1.659-.4,5.153,5.153,0,0,0,1.929-1.6v1.749h3.39V52.357H34.6V42.98h-3.39v1.767h1.262v4.869a3.215,3.215,0,0,1-2.8,3.011,1.826,1.826,0,0,1-1.857-2.074V42.98H24.443v1.767ZM37.9,50.356v3.769h1.659V52.375a7.659,7.659,0,0,0,.866,1.064,4,4,0,0,0,2.615.938,3.4,3.4,0,0,0,3.552-3.5,3.509,3.509,0,0,0-.613-2.056c-.866-1.226-2.687-1.479-3.859-1.623-1.821-.252-2.4-.577-2.4-1.389,0-.848.866-1.515,2.02-1.515a2.913,2.913,0,0,1,2.254,1.01,2.607,2.607,0,0,1,.541,1.064H46.19V43H44.531v1.352a3.868,3.868,0,0,0-3.21-1.587,3.239,3.239,0,0,0-3.48,3.192c0,1.839,1.262,2.939,3.625,3.264,2.7.343,3.264.7,3.264,1.749a1.907,1.907,0,0,1-2.038,1.713,3.331,3.331,0,0,1-2.525-1.19,3.04,3.04,0,0,1-.631-1.118h-1.7Zm17.924-.379a3,3,0,0,1-2.9,2.759,1.893,1.893,0,0,1-1.893-1.893,1.665,1.665,0,0,1,.469-1.064c.541-.559,1.389-.848,3.372-1.154l.956-.144v1.5Zm.018,4.147h3.408V52.357h-1.3V46.424c0-2.326-1.587-3.7-4.292-3.7a5.118,5.118,0,0,0-3.57,1.154,3.463,3.463,0,0,0-1.064,2.362h2.254A1.932,1.932,0,0,1,53.512,44.4c1.479,0,2.29.7,2.29,1.984v.7l-1.425.162c-2.9.325-4.111.721-4.941,1.587A3.121,3.121,0,0,0,48.625,51a3.324,3.324,0,0,0,3.534,3.336,4.981,4.981,0,0,0,3.661-1.749v1.5ZM64.223,43H60.761v1.767h1.3v7.61h-1.3v1.767h4.724V52.375h-1.3V47.741a3.331,3.331,0,0,1,2.939-3.228c1.046,0,1.749.83,1.749,2.074v7.556h3.408V52.375H71v-6.4a3.082,3.082,0,0,0-3.228-3.21,3.88,3.88,0,0,0-1.785.433A5.707,5.707,0,0,0,64.2,44.765V43Z" transform="translate(9.151 32.558)" fill="#231815"/>
        </g>
        <path id="패스_125" data-name="패스 125" d="M27.245,15.972v5.244H23.46V7.52h3.785V12.7h2.766v3.276Z" transform="translate(19.86 6.024)" fill="#231815"/>
        <path id="패스_126" data-name="패스 126" d="M35.861,19.765H32.5v3.666h3.36ZM28.75,13.01H32.5v3.513h3.36V13.01h3.751V26.69H28.75Z" transform="translate(24.322 11.52)" fill="#231815"/>
        <g id="그룹_918" data-name="그룹 918" transform="translate(0 0)" clip-path="url(#clip-path)">
          <path id="패스_127" data-name="패스 127" d="M27.57,30.787a2.777,2.777,0,1,1,2.777-2.777,2.767,2.767,0,0,1-2.777,2.777m0-9.467a6.69,6.69,0,1,0,6.69,6.69,6.688,6.688,0,0,0-6.69-6.69" transform="translate(17.601 17.955)" fill="#231815"/>
        </g>
        <rect id="사각형_127" data-name="사각형 127" width="3.751" height="13.697" transform="translate(69.01 13.544)" fill="#231815"/>
        <path id="패스_128" data-name="패스 128" d="M19.882,22.943l-3.921,4.973L12.94,25.574,18,19.447V18.225H14.009V14.949H18V11.86h3.768v3.089h4.005v3.276H21.766v1.222l4.956,6.127L23.8,27.916Z" transform="translate(11.465 10.622)" fill="#231815"/>
        <rect id="사각형_128" data-name="사각형 128" width="83.163" height="1.018" transform="translate(8.826 61.904)" fill="#231815"/>
      </g>
    </g>
  </g>
</svg>
