<svg id="changbischool" xmlns="http://www.w3.org/2000/svg" width="160" height="160" viewBox="0 0 160 160">
  <rect id="사각형_37" data-name="사각형 37" width="160" height="160" fill="none"/>
  <g id="_레이어_1-2" transform="translate(21 58.193)">
    <path id="패스_129" data-name="패스 129" d="M39.713,10.046v6.231H35.22V0h4.493V6.136h3.3v3.91Z" transform="translate(-14.26)" fill="#231815"/>
    <path id="패스_130" data-name="패스 130" d="M187.013,6.136V0H182.52V16.276h4.493V10.046h3.3V6.136Z" transform="translate(-73.899)" fill="#231815"/>
    <path id="패스_131" data-name="패스 131" d="M137.239,6.136V0h-4.5V16.276h4.5V10.046h3.3V6.136Z" transform="translate(-53.744)" fill="#231815"/>
    <path id="패스_132" data-name="패스 132" d="M63.811,17.29v4.184H59.817V17.29H55.36V33.549h12.9V17.29Zm0,12.372H59.817v-4.35h3.993Z" transform="translate(-22.414 -7)" fill="#231815"/>
    <rect id="사각형_129" data-name="사각형 129" width="4.446" height="16.276" transform="translate(50.877)" fill="#231815"/>
    <path id="패스_133" data-name="패스 133" d="M126.15,49.55v4.517h8.463v8.8h4.446V49.55Z" transform="translate(-51.076 -20.062)" fill="#231815"/>
    <path id="패스_134" data-name="패스 134" d="M164.958,21.817V17.3H152.05V33.576h12.908V29.06H156.5V21.817Z" transform="translate(-61.562 -7.004)" fill="#231815"/>
    <path id="패스_135" data-name="패스 135" d="M33.977,57.361a3.1,3.1,0,1,1,3.095-3.1,3.095,3.095,0,0,1-3.095,3.1m0-10.581a7.484,7.484,0,1,0,7.481,7.481,7.484,7.484,0,0,0-7.481-7.481" transform="translate(-10.725 -18.94)" fill="#231815"/>
    <path id="패스_136" data-name="패스 136" d="M178.937,46.78a7.484,7.484,0,1,0,7.481,7.481A7.484,7.484,0,0,0,178.937,46.78Zm0,10.581a3.1,3.1,0,1,1,3.095-3.1A3.095,3.095,0,0,1,178.937,57.361Z" transform="translate(-69.417 -18.94)" fill="#231815"/>
    <path id="패스_137" data-name="패스 137" d="M5.91,14.72v3.654H1.256V22.26H5.91V23.7L0,30.967,3.535,33.74l4.582-5.892,4.594,5.892,3.41-2.773-5.8-7.266V22.26h4.684V18.374H10.325V14.72Z" transform="translate(0 -5.96)" fill="#231815"/>
    <path id="패스_138" data-name="패스 138" d="M113.865,22.264h1.827v-3.88h-4.684V14.73h-4.416v3.654h-4.654v3.88h2.184a7.484,7.484,0,1,0,9.742,0ZM109,31.036a3.1,3.1,0,1,1,3.095-3.1A3.095,3.095,0,0,1,109,31.036Z" transform="translate(-41.1 -5.964)" fill="#231815"/>
  </g>
</svg>
