<svg xmlns="http://www.w3.org/2000/svg" xmlns:xlink="http://www.w3.org/1999/xlink" width="150" height="41.922" viewBox="0 0 150 41.922">
  <defs>
    <clipPath id="clip-path">
      <rect id="사각형_24" data-name="사각형 24" width="150" height="41.922" fill="#333"/>
    </clipPath>
  </defs>
  <g id="그룹_41" data-name="그룹 41" clip-path="url(#clip-path)">
    <path id="패스_2" data-name="패스 2" d="M58.6,44.024a5.74,5.74,0,0,1-2.361.425,4.173,4.173,0,0,1-4.408-4.527A4.437,4.437,0,0,1,56.5,35.234a4.849,4.849,0,0,1,2.121.394l-.286.947a4.242,4.242,0,0,0-1.8-.367c-2.092,0-3.478,1.335-3.478,3.677a3.233,3.233,0,0,0,3.418,3.577,4.676,4.676,0,0,0,1.89-.366Z" transform="translate(-7.589 -5.159)" fill="#333"/>
    <path id="패스_3" data-name="패스 3" d="M61.689,34.839h1.17v4h.026a2.273,2.273,0,0,1,.838-.822,2.349,2.349,0,0,1,1.192-.323c.87,0,2.235.531,2.235,2.741v3.817h-1.17V40.563c0-1.033-.39-1.9-1.477-1.9a1.688,1.688,0,0,0-1.566,1.158,1.575,1.575,0,0,0-.079.554v3.875h-1.17Z" transform="translate(-9.032 -5.101)" fill="#333"/>
    <path id="패스_4" data-name="패스 4" d="M74.751,43.207a10.041,10.041,0,0,0,.1,1.535H73.787l-.1-.808h-.035a2.385,2.385,0,0,1-1.961.953,1.831,1.831,0,0,1-1.961-1.841c0-1.555,1.379-2.408,3.854-2.39v-.136a1.315,1.315,0,0,0-1.457-1.472,3.125,3.125,0,0,0-1.672.478l-.266-.782a4.046,4.046,0,0,1,2.121-.562c1.962,0,2.444,1.338,2.444,2.626ZM73.605,41.47c-1.26-.026-2.7.2-2.7,1.435a1.023,1.023,0,0,0,1.085,1.112,1.6,1.6,0,0,0,1.558-1.07,1.234,1.234,0,0,0,.055-.366Z" transform="translate(-10.209 -5.591)" fill="#333"/>
    <path id="패스_5" data-name="패스 5" d="M77.808,40.065c0-.671-.021-1.2-.053-1.735h1.039l.065,1.052h.033a2.365,2.365,0,0,1,2.119-1.2c.886,0,2.259.533,2.259,2.733v3.825H82.1v-3.7c0-1.034-.389-1.9-1.477-1.9a1.672,1.672,0,0,0-1.565,1.192,1.8,1.8,0,0,0-.08.54v3.862h-1.17Z" transform="translate(-11.384 -5.591)" fill="#333"/>
    <path id="패스_6" data-name="패스 6" d="M91.851,43.808a3.734,3.734,0,0,1-.916,2.935,3.455,3.455,0,0,1-2.34.77,4.148,4.148,0,0,1-2.143-.528l.294-.9a3.612,3.612,0,0,0,1.888.514c1.186,0,2.061-.622,2.061-2.241v-.711h-.027a2.27,2.27,0,0,1-2.034,1.076A2.873,2.873,0,0,1,85.9,41.583c0-2.172,1.414-3.4,2.9-3.4a2.129,2.129,0,0,1,2,1.1h.026l.049-.958h1.038c-.032.452-.055.974-.055,1.757Zm-1.169-2.955a1.808,1.808,0,0,0-.064-.52A1.679,1.679,0,0,0,88.986,39.1c-1.108,0-1.9.937-1.9,2.424,0,1.251.646,2.3,1.892,2.3a1.7,1.7,0,0,0,1.616-1.2,2.052,2.052,0,0,0,.091-.618Z" transform="translate(-12.577 -5.591)" fill="#333"/>
    <path id="패스_7" data-name="패스 7" d="M95.125,34.839h1.169v4.026h.026A2.372,2.372,0,0,1,98.5,37.694c1.593,0,2.713,1.323,2.707,3.265,0,2.3-1.457,3.44-2.889,3.44a2.312,2.312,0,0,1-2.147-1.2h-.031l-.059,1.052H95.071c.032-.44.054-1.086.054-1.658Zm1.169,6.841a1.889,1.889,0,0,0,.048.422,1.791,1.791,0,0,0,1.742,1.361c1.222,0,1.941-.989,1.941-2.458,0-1.286-.663-2.385-1.907-2.385a1.849,1.849,0,0,0-1.758,1.428,1.886,1.886,0,0,0-.067.483Z" transform="translate(-13.92 -5.101)" fill="#333"/>
    <path id="패스_8" data-name="패스 8" d="M104.537,36.711a.755.755,0,1,0,.008-1.509.739.739,0,0,0-.756.754.726.726,0,0,0,.736.755Zm.591,1.181h-1.17v6.413h1.17Z" transform="translate(-15.196 -5.154)" fill="#333"/>
    <path id="패스_9" data-name="패스 9" d="M110.964,35.494a12.7,12.7,0,0,1,2.227-.178,3.678,3.678,0,0,1,2.508.743,2.433,2.433,0,0,1,.787,1.873,2.631,2.631,0,0,1-.7,1.915,3.7,3.7,0,0,1-2.733.977,3.773,3.773,0,0,1-.931-.083v3.581h-1.163Zm1.163,4.3a3.531,3.531,0,0,0,.953.1c1.4,0,2.239-.685,2.239-1.9,0-1.179-.84-1.757-2.1-1.757a5.55,5.55,0,0,0-1.088.091Z" transform="translate(-16.246 -5.171)" fill="#333"/>
    <path id="패스_10" data-name="패스 10" d="M124.327,43.009c0,.674.021,1.251.054,1.759h-1.04l-.062-1.047h-.033a2.393,2.393,0,0,1-2.121,1.192c-1.007,0-2.209-.566-2.209-2.81V38.355h1.17V41.9c0,1.218.381,2.047,1.429,2.047a1.692,1.692,0,0,0,1.536-1.066,1.8,1.8,0,0,0,.106-.6V38.355h1.17Z" transform="translate(-17.411 -5.616)" fill="#333"/>
    <path id="패스_11" data-name="패스 11" d="M127.511,34.839h1.169v4.026h.026a2.371,2.371,0,0,1,2.184-1.171c1.593,0,2.713,1.323,2.707,3.265,0,2.3-1.457,3.44-2.889,3.44a2.311,2.311,0,0,1-2.146-1.2h-.032l-.059,1.052h-1.015c.032-.44.054-1.086.054-1.658Zm1.169,6.841a1.838,1.838,0,0,0,.049.422,1.79,1.79,0,0,0,1.742,1.361c1.221,0,1.94-.989,1.94-2.458,0-1.286-.663-2.385-1.907-2.385a1.851,1.851,0,0,0-1.758,1.428,1.925,1.925,0,0,0-.067.483Z" transform="translate(-18.661 -5.101)" fill="#333"/>
    <rect id="사각형_22" data-name="사각형 22" width="1.171" height="9.413" transform="translate(116.405 29.738)" fill="#333"/>
    <path id="패스_12" data-name="패스 12" d="M140.548,36.711a.725.725,0,0,1-.734-.755.738.738,0,0,1,.756-.754.755.755,0,1,1-.009,1.509Zm-.566,1.181h1.17v6.413h-1.17Z" transform="translate(-20.471 -5.154)" fill="#333"/>
    <path id="패스_13" data-name="패스 13" d="M143.41,43.548a3.177,3.177,0,0,0,1.547.458c.849,0,1.243-.416,1.243-.95,0-.557-.338-.85-1.189-1.169-1.161-.42-1.709-1.052-1.705-1.82a1.985,1.985,0,0,1,2.224-1.883,3.117,3.117,0,0,1,1.573.394l-.291.854a2.531,2.531,0,0,0-1.316-.377c-.685,0-1.059.394-1.059.876,0,.528.376.764,1.216,1.089,1.107.411,1.68.971,1.683,1.928,0,1.137-.883,1.933-2.4,1.933a3.665,3.665,0,0,1-1.805-.446Z" transform="translate(-20.956 -5.591)" fill="#333"/>
    <path id="패스_14" data-name="패스 14" d="M149.815,34.839h1.17v4h.026a2.272,2.272,0,0,1,.838-.822,2.345,2.345,0,0,1,1.192-.323c.87,0,2.236.531,2.236,2.741v3.817h-1.17V40.563c0-1.033-.39-1.9-1.477-1.9a1.69,1.69,0,0,0-1.567,1.158,1.575,1.575,0,0,0-.078.554v3.875h-1.17Z" transform="translate(-21.935 -5.101)" fill="#333"/>
    <path id="패스_15" data-name="패스 15" d="M159.026,41.738a2.04,2.04,0,0,0,2.189,2.214,4.32,4.32,0,0,0,1.776-.328l.2.836a5.2,5.2,0,0,1-2.142.408,2.99,2.99,0,0,1-3.159-3.237c0-1.939,1.143-3.461,3.021-3.461,2.092,0,2.641,1.833,2.641,3.019a3.019,3.019,0,0,1-.04.56Zm3.4-.845a1.65,1.65,0,0,0-1.6-1.881,1.91,1.91,0,0,0-1.784,1.881Z" transform="translate(-23.118 -5.589)" fill="#333"/>
    <path id="패스_16" data-name="패스 16" d="M166.235,40.327c0-.76-.019-1.4-.053-2h1.031l.044,1.257h.041a1.947,1.947,0,0,1,1.786-1.4,1.354,1.354,0,0,1,.326.032v1.106a2.114,2.114,0,0,0-.412-.034,1.625,1.625,0,0,0-1.559,1.486,3.112,3.112,0,0,0-.048.544v3.425h-1.17Z" transform="translate(-24.331 -5.591)" fill="#333"/>
    <path id="패스_17" data-name="패스 17" d="M171.082,43.548a3.181,3.181,0,0,0,1.548.458c.848,0,1.241-.416,1.241-.95,0-.557-.338-.85-1.189-1.169-1.161-.42-1.709-1.052-1.705-1.82a1.985,1.985,0,0,1,2.224-1.883,3.114,3.114,0,0,1,1.573.394l-.291.854a2.525,2.525,0,0,0-1.316-.377c-.685,0-1.058.394-1.058.876,0,.528.376.764,1.216,1.089,1.107.411,1.681.971,1.683,1.928,0,1.137-.883,1.933-2.4,1.933a3.665,3.665,0,0,1-1.805-.446Z" transform="translate(-25.007 -5.591)" fill="#333"/>
    <path id="패스_18" data-name="패스 18" d="M26.692,9.237v5.727h-4.13V.006h4.13V5.648h3.036V9.237Z" transform="translate(-3.303 -0.001)" fill="#333"/>
    <path id="패스_19" data-name="패스 19" d="M34.462,11.08h4.1v3.845h3.668V11.08h4.086V26.023H34.462Zm7.763,7.373H38.558v4h3.668Z" transform="translate(-5.046 -1.622)" fill="#333"/>
    <rect id="사각형_23" data-name="사각형 23" width="4.086" height="14.963" transform="translate(45.885)" fill="#333"/>
    <path id="패스_20" data-name="패스 20" d="M23.847,29.974a6.877,6.877,0,1,0,6.875,6.876,6.878,6.878,0,0,0-6.875-6.876m0,9.723a2.847,2.847,0,1,1,2.848-2.848A2.844,2.844,0,0,1,23.847,39.7" transform="translate(-2.485 -4.389)" fill="#333"/>
    <path id="패스_21" data-name="패스 21" d="M7.464,21.5,3.251,26.912,0,24.363l5.431-6.674V16.361H1.155v-3.57H5.431V9.433H9.488v3.358h4.3v3.57h-4.3v1.328l5.323,6.674L11.68,26.912Z" transform="translate(0 -1.381)" fill="#333"/>
  </g>
</svg>
