<?xml version="1.0" encoding="utf-8"?>
<!-- Generator: Adobe Illustrator 24.1.2, SVG Export Plug-In . SVG Version: 6.00 Build 0)  -->
<svg version="1.1" id="Layer_1" xmlns="http://www.w3.org/2000/svg" xmlns:xlink="http://www.w3.org/1999/xlink" x="0px" y="0px"
	 viewBox="0 0 50 41.9" style="enable-background:new 0 0 50 41.9;" xml:space="preserve">
<style type="text/css">
	.st0{fill:none;}
	.st1{fill:#333333;}
</style>
<rect class="st0" width="150" height="41.9"/>
<path id="패스_18" class="st1" d="M23.4,9.2V15h-4.1V0h4.1v5.6h3v3.6H23.4z"/>
<path id="패스_19" class="st1" d="M29.4,9.5h4.1v3.8h3.7V9.5h4.1v14.9H29.4V9.5z M37.2,16.8h-3.7v4h3.7L37.2,16.8z"/>
<rect id="사각형_23" x="45.9" class="st1" width="4.1" height="15"/>
<path id="패스_20" class="st1" d="M21.4,25.6c-3.8,0-6.9,3.1-6.9,6.9c0,3.8,3.1,6.9,6.9,6.9c3.8,0,6.9-3.1,6.9-6.9c0,0,0,0,0,0
	C28.2,28.7,25.2,25.6,21.4,25.6 M21.4,35.3c-1.6,0-2.8-1.3-2.8-2.8c0-1.6,1.3-2.8,2.8-2.8c1.6,0,2.8,1.3,2.8,2.8
	C24.2,34,22.9,35.3,21.4,35.3C21.4,35.3,21.4,35.3,21.4,35.3"/>
<path id="패스_21" class="st1" d="M7.5,20.1l-4.2,5.4L0,23l5.4-6.7V15H1.2v-3.6h4.3V8.1h4.1v3.4h4.3V15H9.5v1.3l5.3,6.7l-3.1,2.5
	L7.5,20.1z"/>
</svg>
