<svg xmlns="http://www.w3.org/2000/svg" width="160" height="160" viewBox="0 0 160 160">
  <g id="switch" transform="translate(14922 7699)">
    <rect id="사각형_37" data-name="사각형 37" width="160" height="160" transform="translate(-14922 -7699)" fill="none"/>
    <g id="_레이어_1-2" transform="translate(-14899.209 -7646.095)">
      <path id="패스_139" data-name="패스 139" d="M106.529,21.773l-7.6,9.762L93.06,26.93l9.8-12.036V12.5H95.144V6.055h7.719V0h7.315V6.055h7.752V12.5h-7.752v2.4l9.605,12.036-5.651,4.605Z" transform="translate(-16.397)" fill="#26499d"/>
      <path id="패스_140" data-name="패스 140" d="M9.965,4.948.17,16.992l5.865,4.6,7.6-9.762,7.6,9.762,5.651-4.6L17.28,4.948,13.656.45Z" transform="translate(-0.03 -0.079)" fill="#26499d"/>
      <rect id="사각형_130" data-name="사각형 130" width="27.976" height="7.373" transform="translate(0 24.162)" fill="#26499d"/>
      <path id="패스_141" data-name="패스 141" d="M67.356,29.33H39.38V36.7h10.3v4.762H57.05V36.7H67.356Z" transform="translate(-6.939 -5.168)" fill="#26499d"/>
      <path id="패스_142" data-name="패스 142" d="M54.144,10.16A6.244,6.244,0,1,0,60.381,16.4a6.241,6.241,0,0,0-6.236-6.244Z" transform="translate(-8.44 -1.79)" fill="#2aa738"/>
      <rect id="사각형_131" data-name="사각형 131" width="7.373" height="18.865" transform="translate(63.77 12.662)" fill="#26499d"/>
      <rect id="사각형_132" data-name="사각형 132" width="7.373" height="18.865" transform="translate(107.044 12.662)" fill="#26499d"/>
      <g id="그룹_920" data-name="그룹 920" transform="translate(22.638 46.52)">
        <path id="패스_143" data-name="패스 143" d="M27.661,61.48a2.54,2.54,0,0,0,1.285.362c.733,0,1.162-.387,1.162-.947,0-.519-.3-.816-1.046-1.1C28.156,59.47,27.6,59,27.6,58.218a1.6,1.6,0,0,1,1.8-1.508,2.523,2.523,0,0,1,1.227.272l-.2.585a2.211,2.211,0,0,0-1.054-.264c-.758,0-1.046.453-1.046.832,0,.519.338.774,1.1,1.071.939.362,1.417.816,1.417,1.631,0,.857-.634,1.6-1.944,1.6a2.869,2.869,0,0,1-1.417-.354l.181-.6Z" transform="translate(-27.48 -56.512)" fill="#26499d"/>
        <path id="패스_144" data-name="패스 144" d="M33.416,57.33v1.145h1.038v.552H33.416v2.15c0,.494.14.774.544.774a1.613,1.613,0,0,0,.42-.049l.033.544a1.775,1.775,0,0,1-.643.1,1,1,0,0,1-.783-.3,1.477,1.477,0,0,1-.28-1.038V59.027H32.09v-.552h.618v-.956Z" transform="translate(-28.292 -56.622)" fill="#26499d"/>
        <path id="패스_145" data-name="패스 145" d="M36.223,60.7c0,.873.5,1.532,1.211,1.532s1.211-.651,1.211-1.549c0-.676-.338-1.532-1.195-1.532s-1.227.791-1.227,1.549m3.163-.041A1.949,1.949,0,0,1,37.4,62.778a1.9,1.9,0,0,1-1.911-2.051,1.947,1.947,0,0,1,1.977-2.117,1.911,1.911,0,0,1,1.919,2.051" transform="translate(-28.891 -56.847)" fill="#26499d"/>
        <path id="패스_146" data-name="패스 146" d="M41.273,59.945c0-.47,0-.873-.033-1.244h.634l.025.783h.033a1.2,1.2,0,0,1,1.1-.873.784.784,0,0,1,.206.025v.684a1.089,1.089,0,0,0-.247-.025,1.017,1.017,0,0,0-.972.931,2.04,2.04,0,0,0-.033.338v2.125h-.717Z" transform="translate(-29.905 -56.847)" fill="#26499d"/>
        <path id="패스_147" data-name="패스 147" d="M44.9,58.73l.873,2.356c.091.264.189.577.255.816h.016c.074-.239.157-.544.255-.832l.791-2.34h.766l-1.087,2.842a6.07,6.07,0,0,1-1.368,2.5,1.964,1.964,0,0,1-.89.47l-.181-.61a1.918,1.918,0,0,0,.634-.354,2.2,2.2,0,0,0,.61-.807.52.52,0,0,0,.058-.173.632.632,0,0,0-.049-.189L44.11,58.73H44.9Z" transform="translate(-30.41 -56.868)" fill="#26499d"/>
        <path id="패스_148" data-name="패스 148" d="M51.671,58.73l.527,2.027c.115.445.222.857.3,1.269h.025c.091-.4.222-.832.354-1.26l.651-2.035h.61l.618,1.994c.148.478.264.9.354,1.3h.025a11.991,11.991,0,0,1,.3-1.293l.568-2h.717l-1.285,3.987h-.659l-.61-1.9a13.289,13.289,0,0,1-.354-1.31H53.8a11.8,11.8,0,0,1-.362,1.318l-.643,1.895h-.659l-1.2-3.987Z" transform="translate(-31.612 -56.868)" fill="#26499d"/>
        <path id="패스_149" data-name="패스 149" d="M58.771,58.393H59.5v3.987h-.725Zm.807-1.12a.449.449,0,0,1-.9,0,.447.447,0,0,1,.453-.453.435.435,0,0,1,.445.453" transform="translate(-32.977 -56.532)" fill="#26499d"/>
        <path id="패스_150" data-name="패스 150" d="M61.856,57.33v1.145h1.038v.552H61.856v2.15c0,.494.14.774.544.774a1.613,1.613,0,0,0,.42-.049l.033.544a1.775,1.775,0,0,1-.643.1,1,1,0,0,1-.783-.3,1.477,1.477,0,0,1-.28-1.038V59.027H60.53v-.552h.618v-.956Z" transform="translate(-33.303 -56.622)" fill="#26499d"/>
        <path id="패스_151" data-name="패스 151" d="M64.34,56.47h.725v2.488h.016a1.345,1.345,0,0,1,.519-.511,1.492,1.492,0,0,1,.741-.206c.535,0,1.392.33,1.392,1.705v2.373h-.725v-2.29c0-.643-.239-1.186-.923-1.186a1.042,1.042,0,0,0-.972.725.878.878,0,0,0-.049.346v2.405H64.34V56.47Z" transform="translate(-33.975 -56.47)" fill="#26499d"/>
        <path id="패스_152" data-name="패스 152" d="M75.75,62.172a3.558,3.558,0,0,1-1.466.264,2.6,2.6,0,0,1-2.743-2.809,2.72,2.72,0,0,1,2.9-2.916,2.976,2.976,0,0,1,1.318.247l-.173.585a2.611,2.611,0,0,0-1.12-.231A2.065,2.065,0,0,0,72.3,59.6a2.018,2.018,0,0,0,2.134,2.232A2.869,2.869,0,0,0,75.6,61.6l.148.568Z" transform="translate(-35.243 -56.512)" fill="#26499d"/>
        <path id="패스_153" data-name="패스 153" d="M77.66,56.47h.725v2.488H78.4a1.345,1.345,0,0,1,.519-.511,1.492,1.492,0,0,1,.741-.206c.535,0,1.392.33,1.392,1.705v2.373h-.725v-2.29c0-.643-.239-1.186-.923-1.186a1.042,1.042,0,0,0-.972.725.878.878,0,0,0-.049.346v2.405H77.66V56.47Z" transform="translate(-36.322 -56.47)" fill="#26499d"/>
        <path id="패스_154" data-name="패스 154" d="M85.184,60.653c-.791-.016-1.689.124-1.689.9a.642.642,0,0,0,.684.692.992.992,0,0,0,.964-.667.756.756,0,0,0,.041-.231Zm.107,2.035-.058-.5h-.025a1.485,1.485,0,0,1-1.219.593,1.136,1.136,0,0,1-1.219-1.145c0-.964.857-1.491,2.4-1.483v-.082a.822.822,0,0,0-.906-.923,1.987,1.987,0,0,0-1.038.3l-.165-.478a2.475,2.475,0,0,1,1.31-.354c1.219,0,1.516.832,1.516,1.631v1.491a5.613,5.613,0,0,0,.066.956h-.659Z" transform="translate(-37.222 -56.847)" fill="#26499d"/>
        <path id="패스_155" data-name="패스 155" d="M87.913,59.79c0-.412-.008-.75-.033-1.079h.643l.041.659h.016a1.466,1.466,0,0,1,1.318-.75c.552,0,1.409.33,1.409,1.7V62.7h-.725V60.4c0-.643-.239-1.178-.923-1.178a1.03,1.03,0,0,0-.972.741,1.042,1.042,0,0,0-.049.338v2.4h-.725Z" transform="translate(-38.123 -56.849)" fill="#26499d"/>
        <path id="패스_156" data-name="패스 156" d="M96.044,60.274a.843.843,0,0,0-.041-.33,1.044,1.044,0,0,0-1.013-.766c-.692,0-1.186.585-1.186,1.508,0,.783.4,1.433,1.178,1.433a1.06,1.06,0,0,0,1.005-.741,1.261,1.261,0,0,0,.058-.387v-.717Zm.75-1.573c-.016.288-.033.61-.033,1.1v2.315a2.293,2.293,0,0,1-.568,1.821,2.114,2.114,0,0,1-1.45.478,2.511,2.511,0,0,1-1.326-.33l.181-.552a2.248,2.248,0,0,0,1.17.313c.741,0,1.285-.387,1.285-1.392V62h-.016a1.423,1.423,0,0,1-1.269.667,1.782,1.782,0,0,1-1.7-1.944,1.914,1.914,0,0,1,1.8-2.117,1.326,1.326,0,0,1,1.244.692h.016l.033-.6h.634Z" transform="translate(-39.037 -56.847)" fill="#26499d"/>
        <path id="패스_157" data-name="패스 157" d="M99.67,60.721a1.357,1.357,0,0,0,.033.264,1.119,1.119,0,0,0,1.087.849c.758,0,1.211-.618,1.211-1.532,0-.8-.412-1.483-1.186-1.483a1.156,1.156,0,0,0-1.1.89,1.429,1.429,0,0,0-.041.3Zm-.75,1.6c.016-.272.033-.676.033-1.03V56.47h.717v2.5h.016a1.485,1.485,0,0,1,1.359-.733,1.789,1.789,0,0,1,1.681,2.035,1.9,1.9,0,0,1-1.788,2.134,1.42,1.42,0,0,1-1.335-.75h-.025l-.033.659H98.92Z" transform="translate(-40.068 -56.47)" fill="#26499d"/>
        <path id="패스_158" data-name="패스 158" d="M104.581,58.393h.725v3.987h-.725Zm.807-1.12a.449.449,0,0,1-.9,0,.447.447,0,0,1,.453-.453.435.435,0,0,1,.445.453" transform="translate(-41.049 -56.532)" fill="#26499d"/>
      </g>
    </g>
  </g>
</svg>
